<svg id="svg" version="1.1" xmlns="http://www.w3.org/2000/svg" xmlns:xlink="http://www.w3.org/1999/xlink" width="400" height="400" viewBox="0, 0, 400,400"><g id="svgg"><path id="path0" d="M178.000 177.600 L 178.000 222.000 222.400 222.000 L 266.800 222.000 266.800 200.003 L 266.800 178.007 244.500 177.903 L 222.200 177.800 222.097 155.500 L 221.993 133.200 199.997 133.200 L 178.000 133.200 178.000 177.600 M88.400 333.600 L 88.400 356.000 111.000 356.000 L 133.600 356.000 133.600 333.600 L 133.600 311.200 111.000 311.200 L 88.400 311.200 88.400 333.600 M266.400 333.600 L 266.400 356.000 289.000 356.000 L 311.600 356.000 311.600 333.600 L 311.600 311.200 289.000 311.200 L 266.400 311.200 266.400 333.600 " stroke="none" fill="#0454a4" fill-rule="evenodd"></path><path id="path1" d="M177.800 88.800 C 177.638 89.063,162.396 89.200,133.376 89.200 L 89.200 89.200 89.200 111.176 C 89.200 125.396,89.059 133.240,88.800 133.400 C 88.535 133.564,88.400 163.649,88.400 222.358 L 88.400 311.068 122.300 311.334 C 140.945 311.480,175.910 311.599,200.000 311.599 C 224.090 311.599,259.055 311.480,277.700 311.334 L 311.600 311.068 311.600 222.358 C 311.600 163.649,311.465 133.564,311.200 133.400 C 310.941 133.240,310.800 125.396,310.800 111.176 L 310.800 89.200 266.624 89.200 C 237.604 89.200,222.362 89.063,222.200 88.800 C 222.040 88.541,214.204 88.400,200.000 88.400 C 185.796 88.400,177.960 88.541,177.800 88.800 M266.600 200.000 L 266.600 266.600 200.000 266.600 L 133.400 266.600 133.297 200.400 C 133.241 163.990,133.280 133.974,133.385 133.699 C 133.537 133.299,147.089 133.218,200.088 133.299 L 266.600 133.400 266.600 200.000 " stroke="none" fill="#7cdcfc" fill-rule="evenodd"></path><path id="path2" d="M44.000 88.800 L 44.000 133.600 66.397 133.600 L 88.793 133.600 88.897 111.300 L 89.000 89.000 133.500 88.898 L 178.000 88.797 178.000 66.398 L 178.000 44.000 111.000 44.000 L 44.000 44.000 44.000 88.800 M222.000 66.398 L 222.000 88.797 266.500 88.898 L 311.000 89.000 311.103 111.300 L 311.207 133.600 333.603 133.600 L 356.000 133.600 356.000 88.800 L 356.000 44.000 289.000 44.000 L 222.000 44.000 222.000 66.398 " stroke="none" fill="#fcf404" fill-rule="evenodd"></path><path id="path3" d="M133.385 133.700 C 133.280 133.975,133.241 163.990,133.297 200.400 L 133.400 266.600 200.000 266.600 L 266.600 266.600 266.703 244.500 L 266.807 222.400 222.203 222.400 L 177.600 222.400 177.600 177.800 L 177.600 133.200 155.587 133.200 C 138.345 133.200,133.534 133.308,133.385 133.700 M222.400 155.397 L 222.400 177.600 244.603 177.600 L 266.807 177.600 266.703 155.500 L 266.600 133.400 244.500 133.297 L 222.400 133.193 222.400 155.397 " stroke="none" fill="#fcfcf4" fill-rule="evenodd"></path><path id="path4" d="M88.984 89.300 C 88.878 89.575,88.840 99.610,88.900 111.600 L 89.007 133.400 89.104 111.302 L 89.200 89.203 133.500 89.100 L 177.800 88.996 133.487 88.898 C 98.333 88.820,89.135 88.903,88.984 89.300 M266.697 89.099 L 310.793 89.203 310.902 111.202 L 311.010 133.200 311.005 111.100 L 311.000 89.000 266.800 88.997 L 222.600 88.995 266.697 89.099 M177.698 177.700 L 177.600 222.400 222.300 222.302 L 267.000 222.204 222.502 222.100 L 178.003 221.997 177.900 177.498 L 177.796 133.000 177.698 177.700 M222.195 155.500 L 222.200 177.800 244.500 177.805 L 266.800 177.810 244.603 177.702 L 222.407 177.593 222.298 155.397 L 222.190 133.200 222.195 155.500 " stroke="none" fill="#a0a8d4" fill-rule="evenodd"></path></g></svg>